#!OML:ASF X:\für Bonn\!DataBase\2005_08_11_Bastian_Final\c3d\Bastian.ASF
:FULLY-SPECIFIED
:DEGREES
261
root -3.01483 3.01121 21.9124 -971.77 2.14753 -168.67
lowerback 65.1966 3.21504 17.7199
upperback 25.164 -7.3604 7.04122
thorax 9.14172 -12.5044 1.281
lowerneck -11.846 4.34927 -7.1713
upperneck -5.61958 7.39855 3.72354
head -0.191771 4.15187 2.66012
rclavicle 3.57812e-015 -7.55382e-015
rhumerus -45.8261 45.0458 -104.965
rradius 31.159
rwrist -25.7056
rhand -32.1383 -12.6102
rfingers 7.12502
rthumb -5.3823 -42.5219
lclavicle 3.57812e-015 -7.55382e-015
lhumerus -25.8341 32.2921 70.3688
lradius 12.6932
lwrist 29.6987
lhand -19.7614 -17.6029
lfingers 7.12502
lthumb 6.57016 12.2752
rfemur -56.1071 -59.0416 8.9569
rtibia 151.338
rfoot -17.1805 13.1621
rtoes -21.8347
lfemur -46.1889 9.37121 -14.7675
ltibia 68.8242
lfoot 9.87006 4.35079
ltoes -0.385261
262
root -3.00394 3.00879 21.9075 -971.97 2.16202 -168.809
lowerback 65.2867 3.24188 17.6791
upperback 25.1349 -7.32819 7.00717
thorax 9.09645 -12.4957 1.26385
lowerneck -11.994 4.68497 -7.08222
upperneck -5.39614 7.83156 3.71333
head -0.117683 4.35961 2.66107
rclavicle 1.11319e-014 7.15625e-015
rhumerus -46.0446 45.1874 -105.239
rradius 31.2188
rwrist -25.9924
rhand -32.0669 -12.6979
rfingers 7.12502
rthumb -5.31331 -42.6112
lclavicle 1.11319e-014 7.15625e-015
lhumerus -25.8579 32.5033 70.1303
lradius 12.6065
lwrist 29.3532
lhand -19.6945 -17.368
lfingers 7.12502
lthumb 6.63472 12.5081
rfemur -59.6006 -54.6863 12.9448
rtibia 150.162
rfoot -14.9284 13.5248
rtoes -21.2464
lfemur -45.9036 9.38872 -14.6718
ltibia 68.8041
lfoot 9.81891 4.50141
ltoes -0.426802
263
root -2.99387 3.00624 21.9012 -972.183 2.11286 -168.972
lowerback 65.3645 3.27049 17.6323
upperback 25.1304 -7.29941 6.94695
thorax 9.07744 -12.4808 1.21491
lowerneck -12.0534 4.99199 -6.9636
upperneck -5.25185 8.22345 3.76549
head -0.0825797 4.54968 2.67154
rclavicle -2.06736e-014 -3.22031e-014
rhumerus -46.1322 45.1613 -105.415
rradius 31.2603
rwrist -26.1312
rhand -31.9005 -12.8245
rfingers 7.12502
rthumb -5.15263 -42.7418
lclavicle -2.06736e-014 -3.22031e-014
lhumerus -25.8234 32.6179 69.8972
lradius 12.5086
lwrist 29.0721
lhand -19.5839 -17.2382
lfingers 7.12502
lthumb 6.74153 12.6345
rfemur -62.3571 -49.895 16.1388
rtibia 148.823
rfoot -12.7051 13.8721
rtoes -20.8952
lfemur -45.6362 9.39077 -14.6516
ltibia 68.8427
lfoot 9.67411 4.59259
ltoes -0.838927
264
root -2.98367 3.0044 21.8955 -972.407 2.05551 -169.137
lowerback 65.4648 3.30543 17.5542
upperback 25.1154 -7.28137 6.8891
thorax 9.04403 -12.4787 1.18844
lowerneck -12.0539 5.30124 -6.84647
upperneck -5.14308 8.61288 3.76561
head -0.0663757 4.73756 2.66138
rclavicle 3.22031e-014 1.39149e-014
rhumerus -46.1702 45.0545 -105.521
rradius 31.2645
rwrist -26.1255
rhand -31.7535 -12.8976
rfingers 7.12502
rthumb -5.01068 -42.8183
lclavicle 3.22031e-014 1.39149e-014
lhumerus -25.8316 32.8176 69.6618
lradius 12.4563
lwrist 28.7425
lhand -19.5371 -17.0518
lfingers 7.12502
lthumb 6.78671 12.8194
rfemur -64.2926 -45.3082 18.5246
rtibia 147.334
rfoot -10.7542 14.1516
rtoes -20.7091
lfemur -45.3745 9.37049 -14.6337
ltibia 68.93
lfoot 9.40741 4.6524
ltoes -1.54155
265
root -2.97147 3.00168 21.8877 -972.62 1.99617 -169.298
lowerback 65.5543 3.34925 17.4878
upperback 25.1115 -7.24808 6.82885
thorax 9.02395 -12.4654 1.14666
lowerneck -11.9947 5.59993 -6.69607
upperneck -5.08515 8.98415 3.77529
head -0.0740845 4.91742 2.64385
rclavicle -2.34566e-014 1.94809e-014
rhumerus -46.0138 44.6809 -105.445
rradius 31.2115
rwrist -25.7998
rhand -31.5744 -12.9653
rfingers 7.12502
rthumb -4.83778 -42.89
lclavicle -2.34566e-014 1.94809e-014
lhumerus -25.7856 32.8993 69.4657
lradius 12.4019
lwrist 28.5051
lhand -19.511 -16.879
lfingers 7.12502
lthumb 6.81185 12.9914
rfemur -65.8036 -40.7856 20.4736
rtibia 145.746
rfoot -8.91301 14.2126
rtoes -20.3771
lfemur -45.1553 9.37458 -14.6163
ltibia 69.0548
lfoot 9.08379 4.64882
ltoes -1.94997
266
root -2.95869 2.99882 21.8817 -972.806 1.90305 -169.459
lowerback 65.6089 3.40563 17.3818
upperback 25.1111 -7.21417 6.76827
thorax 9.00225 -12.4484 1.11911
lowerneck -11.8552 5.88264 -6.54589
upperneck -5.08822 9.33154 3.7717
head -0.112449 5.08585 2.61555
rclavicle -5.96354e-015 0
rhumerus -45.819 44.2619 -105.317
rradius 31.1137
rwrist -25.463
rhand -31.3965 -12.9682
rfingers 7.12502
rthumb -4.66597 -42.8968
lclavicle -5.96354e-015 0
lhumerus -25.7729 33.0908 69.2386
lradius 12.3642
lwrist 28.2196
lhand -19.4677 -16.7725
lfingers 7.12502
lthumb 6.85364 13.0966
rfemur -66.9342 -36.5774 21.9733
rtibia 144.045
rfoot -7.2886 14.1247
rtoes -19.7221
lfemur -44.9746 9.34776 -14.6349
ltibia 69.1933
lfoot 8.73074 4.64296
ltoes -2.32381
267
root -2.94475 2.99701 21.8754 -973.013 1.81577 -169.611
lowerback 65.6776 3.44086 17.2938
upperback 25.1007 -7.17802 6.6759
thorax 8.96584 -12.4181 1.05283
lowerneck -11.6399 6.16304 -6.3241
upperneck -5.10212 9.66114 3.76524
head -0.161802 5.24275 2.56892
rclavicle -4.01545e-014 -2.8625e-014
rhumerus -45.6979 43.7747 -105.285
rradius 31.0306
rwrist -25.1311
rhand -31.3047 -12.8763
rfingers 7.12502
rthumb -4.57737 -42.8069
lclavicle -4.01545e-014 -2.8625e-014
lhumerus -25.7392 32.917 69.0912
lradius 12.3644
lwrist 28.2038
lhand -19.4709 -16.6922
lfingers 7.12502
lthumb 6.85063 13.177
rfemur -67.6965 -32.824 23.147
rtibia 142.225
rfoot -5.84996 13.801
rtoes -19.1011
lfemur -44.7807 9.31781 -14.6371
ltibia 69.3461
lfoot 8.34336 4.66069
ltoes -2.37501
268
root -2.93038 2.99401 21.8662 -973.208 1.69427 -169.765
lowerback 65.6633 3.53592 17.1406
upperback 25.1352 -7.14515 6.63544
thorax 8.98316 -12.4097 1.0541
lowerneck -11.4797 6.41834 -6.17981
upperneck -5.09733 9.97067 3.75845
head -0.197707 5.39126 2.53838
rclavicle 3.57812e-015 -2.62396e-014
rhumerus -45.4961 43.2991 -105.117
rradius 30.9592
rwrist -24.7697
rhand -31.2633 -12.7465
rfingers 7.12502
rthumb -4.53744 -42.6779
lclavicle 3.57812e-015 -2.62396e-014
lhumerus -25.7086 32.7571 69.0346
lradius 12.4435
lwrist 28.2513
lhand -19.5608 -16.5698
lfingers 7.12502
lthumb 6.7638 13.3022
rfemur -68.2632 -29.6406 24.0555
rtibia 140.344
rfoot -4.64008 13.3692
rtoes -18.3764
lfemur -44.623 9.30245 -14.6859
ltibia 69.5053
lfoot 7.96769 4.6362
ltoes -2.54954
269
root -2.91633 2.99113 21.8571 -973.399 1.58337 -169.923
lowerback 65.5846 3.62635 16.9974
upperback 25.183 -7.101 6.57577
thorax 9.01184 -12.3801 1.02135
lowerneck -11.2221 6.65793 -6.00366
upperneck -5.12704 10.2491 3.74003
head -0.256438 5.52228 2.49156
rclavicle 8.34896e-015 1.74931e-014
rhumerus -45.4007 42.8551 -105.059
rradius 30.9074
rwrist -24.5258
rhand -31.2602 -12.5987
rfingers 7.12502
rthumb -4.53437 -42.5302
lclavicle 8.34896e-015 1.74931e-014
lhumerus -25.6721 32.3934 69.0285
lradius 12.5399
lwrist 28.4417
lhand -19.6657 -16.5124
lfingers 7.12502
lthumb 6.66255 13.3628
rfemur -68.6046 -26.7809 24.7471
rtibia 138.374
rfoot -3.4879 12.8506
rtoes -17.0479
lfemur -44.455 9.29558 -14.7318
ltibia 69.6616
lfoot 7.6103 4.62681
ltoes -2.63845
270
root -2.90153 2.98778 21.8465 -973.584 1.47415 -170.081
lowerback 65.4831 3.73635 16.8238
upperback 25.2294 -7.04567 6.5249
thorax 9.03521 -12.3468 1.00748
lowerneck -10.9563 6.88431 -5.8492
upperneck -5.12992 10.5096 3.73685
head -0.308209 5.64311 2.45328
rclavicle 2.82274e-014 -6.83819e-014
rhumerus -45.3053 42.3795 -104.97
rradius 30.8599
rwrist -24.279
rhand -31.2389 -12.398
rfingers 7.12502
rthumb -4.51385 -42.3299
lclavicle 2.82274e-014 -6.83819e-014
lhumerus -25.6721 31.7191 69.1462
lradius 12.7729
lwrist 28.9713
lhand -19.8312 -16.3823
lfingers 7.12502
lthumb 6.50281 13.4979
rfemur -68.7895 -24.2573 25.311
rtibia 136.357
rfoot -2.40309 12.0628
rtoes -15.3489
lfemur -44.3042 9.31161 -14.7731
ltibia 69.8117
lfoot 7.24384 4.66441
ltoes -2.28723
271
root -2.88792 2.98259 21.8345 -973.777 1.38137 -170.217
lowerback 65.334 3.82835 16.7011
upperback 25.3032 -6.99755 6.47878
thorax 9.0981 -12.3123 0.969419
lowerneck -10.7033 7.0846 -5.71082
upperneck -5.1418 10.7419 3.75783
head -0.360916 5.75161 2.4253
rclavicle 1.78906e-014 -1.74931e-014
rhumerus -45.2114 41.8945 -104.889
rradius 30.8313
rwrist -24.0385
rhand -31.2691 -12.2394
rfingers 7.12502
rthumb -4.54301 -42.1707
lclavicle 1.78906e-014 -1.74931e-014
lhumerus -25.6361 31.0656 69.2657
lradius 12.9922
lwrist 29.4257
lhand -20.038 -16.231
lfingers 7.12502
lthumb 6.30316 13.6552
rfemur -68.8329 -22.2074 25.7619
rtibia 134.327
rfoot -1.47115 11.049
rtoes -13.3451
lfemur -44.1605 9.31364 -14.8069
ltibia 69.9567
lfoot 6.95548 4.66851
ltoes -2.36539
272
root -2.87459 2.97541 21.8218 -973.969 1.28606 -170.352
lowerback 65.2213 3.9096 16.5586
upperback 25.3288 -6.93663 6.44439
thorax 9.10071 -12.2696 0.964925
lowerneck -10.3818 7.27444 -5.59525
upperneck -5.15796 10.9518 3.70903
head -0.422004 5.84526 2.37413
rclavicle -1.19271e-015 2.38542e-015
rhumerus -45.1795 41.3826 -104.778
rradius 30.81
rwrist -23.7597
rhand -31.2459 -12.0736
rfingers 7.12502
rthumb -4.52058 -42.0054
lclavicle -1.19271e-015 2.38542e-015
lhumerus -25.7169 30.0261 69.5542
lradius 13.4527
lwrist 30.3127
lhand -20.2774 -15.9952
lfingers 7.12502
lthumb 6.07203 13.8978
rfemur -68.8145 -20.491 26.1692
rtibia 132.306
rfoot -0.705559 9.76288
rtoes -11.8376
lfemur -44.0137 9.31335 -14.8469
ltibia 70.0837
lfoot 6.60427 4.68861
ltoes -2.59663
273
root -2.86245 2.96171 21.8068 -974.135 1.19707 -170.482
lowerback 65.054 3.99571 16.4103
upperback 25.3694 -6.87573 6.40918
thorax 9.11971 -12.2222 0.955774
lowerneck -10.0895 7.43748 -5.44488
upperneck -5.13691 11.122 3.65464
head -0.461395 5.91791 2.31741
rclavicle 1.78906e-014 -4.77083e-014
rhumerus -45.1687 40.8816 -104.679
rradius 30.8107
rwrist -23.5604
rhand -31.2629 -11.9018
rfingers 7.12502
rthumb -4.537 -41.8332
lclavicle 1.78906e-014 -4.77083e-014
lhumerus -25.8415 28.5445 70.0056
lradius 14.1473
lwrist 31.6254
lhand -20.545 -15.6737
lfingers 7.12502
lthumb 5.81369 14.2265
rfemur -68.8176 -19.1143 26.5799
rtibia 130.332
rfoot -0.0511334 8.25248
rtoes -10.7366
lfemur -43.9329 9.29697 -14.8935
ltibia 70.2254
lfoot 6.27851 4.76217
ltoes -2.73396
